<svg width="512" height="512" viewBox="0 0 512 512" xmlns="http://www.w3.org/2000/svg" fill="none">
  <rect width="512" height="512" rx="110" fill="url(#gradAI)"/>
  <circle cx="256" cy="256" r="120" stroke="white" stroke-width="24" opacity="0.85"/>
  <path d="M196 256C196 222.863 222.863 196 256 196C289.137 196 316 222.863 316 256C316 289.137 289.137 316 256 316C222.863 316 196 289.137 196 256Z" stroke="white" stroke-width="24"/>
  <path d="M156 176L116 216M356 176L396 216M356 336L396 296M156 336L116 296" stroke="white" stroke-width="20" stroke-linecap="round"/>
  <circle cx="116" cy="216" r="18" fill="white"/>
  <circle cx="396" cy="216" r="18" fill="white"/>
  <circle cx="396" cy="296" r="18" fill="white"/>
  <circle cx="116" cy="296" r="18" fill="white"/>
  <defs>
    <linearGradient id="gradAI" x1="512" y1="0" x2="0" y2="512" gradientUnits="userSpaceOnUse">
      <stop stop-color="#6C63FF"/>
      <stop offset="1" stop-color="#2A1F8F"/>
    </linearGradient>
  </defs>
</svg>
