<svg width="512" height="512" viewBox="0 0 512 512" fill="none" xmlns="http://www.w3.org/2000/svg">
  <rect width="512" height="512" rx="110" fill="url(#grad)"/>
  <path d="M152 162C152 150.954 160.954 142 172 142H340C351.046 142 360 150.954 360 162V247C360 258.046 351.046 267 340 267H227L190 304V267H172C160.954 267 152 258.046 152 247V162Z" stroke="white" stroke-width="26" stroke-linecap="round" stroke-linejoin="round" fill="none"/>
  <path d="M210 337H312C323.046 337 332 345.954 332 357V365C332 376.046 323.046 385 312 385H210C198.954 385 190 376.046 190 365V357C190 345.954 198.954 337 210 337Z" stroke="white" stroke-width="26" stroke-linecap="round" stroke-linejoin="round" fill="none"/>
  <defs>
    <linearGradient id="grad" x1="0" y1="0" x2="512" y2="512" gradientUnits="userSpaceOnUse">
      <stop offset="0%" stop-color="#8E2DE2"/>
      <stop offset="100%" stop-color="#4A00E0"/>
    </linearGradient>
  </defs>
</svg>
